<svg width="11" height="9" viewBox="0 0 11 9" fill="none" xmlns="http://www.w3.org/2000/svg">
<path d="M3.61608 8.92185C7.59376 8.92185 9.77011 5.59856 9.77011 2.71431C9.77011 2.61975 9.77011 2.52518 9.76341 2.43062C10.1853 2.1199 10.5536 1.73489 10.8482 1.30259C10.4598 1.47145 10.038 1.59304 9.60269 1.64032C10.0514 1.37013 10.3929 0.944591 10.5536 0.437991C10.1384 0.687914 9.66966 0.87029 9.18082 0.964855C8.78573 0.539311 8.22323 0.275879 7.60046 0.275879C6.4018 0.275879 5.43751 1.25531 5.43751 2.45764C5.43751 2.6265 5.4576 2.79537 5.49108 2.95748C3.69644 2.86292 2.09599 1.99832 1.03126 0.674404C0.843755 0.998628 0.736612 1.37013 0.736612 1.77541C0.736612 2.53194 1.11831 3.20065 1.7009 3.59242C1.34599 3.57891 1.01117 3.47759 0.723219 3.31548V3.3425V3.3425C0.723219 4.40298 1.46652 5.28109 2.4576 5.48373C2.27679 5.53101 2.0826 5.55803 1.8884 5.55803C1.74777 5.55803 1.61385 5.54452 1.47992 5.52426C1.75447 6.38885 2.55135 7.01704 3.50224 7.0373C2.75894 7.62496 1.82813 7.96944 0.816969 7.96944C0.636165 7.96944 0.468755 7.96269 0.294647 7.94243C1.25224 8.56386 2.39063 8.92185 3.61608 8.92185Z" fill="white"/>
</svg>
