<svg width="11" height="11" viewBox="0 0 11 11" fill="none" xmlns="http://www.w3.org/2000/svg">
<path d="M5.49108 10.7865V6.76752H4.15179V5.20044H5.49108V4.04539C5.49108 2.70796 6.30804 1.97846 7.49331 1.97846C8.05581 1.97846 8.54465 2.01899 8.68528 2.03925V3.43747L7.86831 3.44422C7.21876 3.44422 7.09822 3.74818 7.09822 4.20075V5.20044H8.63171L8.43081 6.76752H7.09822V10.7865H8.35715C9.42188 10.7865 10.2857 9.91519 10.2857 8.8412V2.35672C10.2857 1.28273 9.42188 0.411377 8.35715 0.411377H1.92857C0.86384 0.411377 0 1.28273 0 2.35672V8.8412C0 9.91519 0.86384 10.7865 1.92857 10.7865H5.49108Z" fill="white"/>
</svg>
